<?xml version="1.0" encoding="UTF-8"?>
<svg width="32px" height="32px" viewBox="0 0 32 32" version="1.1" xmlns="http://www.w3.org/2000/svg" xmlns:xlink="http://www.w3.org/1999/xlink">
    <!-- Generator: Sketch 46.2 (44496) - http://www.bohemiancoding.com/sketch -->
    <title>GATHER_FAVICON</title>
    <desc>Created with Sketch.</desc>
    <defs></defs>
    <g id="Page-1" stroke="none" stroke-width="1" fill="none" fill-rule="evenodd">
        <g id="GATHER_FAVICON">
            <g id="Content_creation_favicon" fill-rule="nonzero" fill="#FFFFFF">
                <rect id="Rectangle-7-Copy" x="0" y="0" width="32" height="32"></rect>
            </g>
            <g id="Page-1" transform="translate(1.000000, 1.000000)" stroke="#0A0A24" stroke-width="0.5" fill="#0A0A24">
                <path d="M0.764705882,29.2352941 L12.2352941,29.2352941 L12.2352941,17.7647059 L0.764705882,17.7647059 L0.764705882,29.2352941 Z M12.6176471,30 L0.382352941,30 C0.152941176,30 0,29.8470588 0,29.6176471 L0,17.3823529 C0,17.1529412 0.152941176,17 0.382352941,17 L12.6176471,17 C12.8470588,17 13,17.1529412 13,17.3823529 L13,29.6176471 C13,29.8470588 12.8470588,30 12.6176471,30 L12.6176471,30 Z" id="Fill-1"></path>
                <path d="M8.77777778,20.2352941 L21.2222222,20.2352941 L21.2222222,8.76470588 L8.77777778,8.76470588 L8.77777778,20.2352941 Z M21.6111111,21 L8.38888889,21 C8.15555556,21 8,20.8470588 8,20.6176471 L8,8.38235294 C8,8.15294118 8.15555556,8 8.38888889,8 L21.6111111,8 C21.8444444,8 22,8.15294118 22,8.38235294 L22,20.6176471 C22,20.8470588 21.8444444,21 21.6111111,21 L21.6111111,21 Z" id="Fill-3"></path>
                <path d="M15.7894737,14.2105263 L29.2105263,14.2105263 L29.2105263,0.789473684 L15.7894737,0.789473684 L15.7894737,14.2105263 Z M29.6052632,15 L15.3947368,15 C15.1578947,15 15,14.8421053 15,14.6052632 L15,0.394736842 C15,0.157894737 15.1578947,0 15.3947368,0 L29.6052632,0 C29.8421053,0 30,0.157894737 30,0.394736842 L30,14.6052632 C30,14.8421053 29.8421053,15 29.6052632,15 L29.6052632,15 Z" id="Fill-4"></path>
            </g>
        </g>
    </g>
</svg>