
<svg width="40px" height="41px" viewBox="0 0 40 41" version="1.1" xmlns="http://www.w3.org/2000/svg" xmlns:xlink="http://www.w3.org/1999/xlink">
    <!-- Generator: Sketch 47.1 (45422) - http://www.bohemiancoding.com/sketch -->
    <desc>Created with Sketch.</desc>
    <defs></defs>
    <g id="Page-1" stroke="none" stroke-width="1" fill="none" fill-rule="evenodd">
        <g id="GATHER-Desktop-Main" transform="translate(-412.000000, -8.000000)" stroke="#0A0A24" stroke-width="0.5" fill="#0A0A24">
            <g id="Page-1" transform="translate(413.000000, 9.000000)">
                <path d="M1,38 L16,38 L16,23 L1,23 L1,38 Z M16.5,39 L0.5,39 C0.2,39 0,38.8 0,38.5 L0,22.5 C0,22.2 0.2,22 0.5,22 L16.5,22 C16.8,22 17,22.2 17,22.5 L17,38.5 C17,38.8 16.8,39 16.5,39 L16.5,39 Z" id="Fill-1"></path>
                <path d="M11,27 L27,27 L27,12 L11,12 L11,27 Z M27.5,28 L10.5,28 C10.2,28 10,27.8 10,27.5 L10,11.5 C10,11.2 10.2,11 10.5,11 L27.5,11 C27.8,11 28,11.2 28,11.5 L28,27.5 C28,27.8 27.8,28 27.5,28 L27.5,28 Z" id="Fill-3"></path>
                <path d="M20,18 L37,18 L37,1 L20,1 L20,18 Z M37.5,19 L19.5,19 C19.2,19 19,18.8 19,18.5 L19,0.5 C19,0.2 19.2,0 19.5,0 L37.5,0 C37.8,0 38,0.2 38,0.5 L38,18.5 C38,18.8 37.8,19 37.5,19 L37.5,19 Z" id="Fill-4"></path>
            </g>
        </g>
    </g>
</svg>